HIERARCHY
ROOT Hips
{
	OFFSET 0.000000 0.000000 0.000000
	CHANNELS 6 Xposition Yposition Zposition Yrotation Xrotation Zrotation
	JOINT Chest
	{
		OFFSET 0.000000 -0.009281 11.569106
		CHANNELS 3 Yrotation Xrotation Zrotation
		JOINT Chest2
		{
			OFFSET -0.000000 0.016865 9.269641
			CHANNELS 3 Yrotation Xrotation Zrotation
			JOINT Chest3
			{
				OFFSET -0.000000 0.000001 8.374491
				CHANNELS 3 Yrotation Xrotation Zrotation
				JOINT Chest4
				{
					OFFSET -0.000000 0.000001 8.374493
					CHANNELS 3 Yrotation Xrotation Zrotation
					JOINT Neck
					{
						OFFSET -0.000000 0.000002 12.152554
						CHANNELS 3 Yrotation Xrotation Zrotation
						JOINT Head
						{
							OFFSET -0.000000 0.040101 7.802319
							CHANNELS 3 Yrotation Xrotation Zrotation
							End Site
							{
								OFFSET -0.000000 0.020947 14.853096
							}
						}
					}
					JOINT RightCollar
					{
						OFFSET 2.894404 0.000001 6.791374
						CHANNELS 3 Yrotation Xrotation Zrotation
						JOINT RightShoulder
						{
							OFFSET 13.574684 0.000001 0.000000
							CHANNELS 3 Yrotation Xrotation Zrotation
							JOINT RightElbow
							{
								OFFSET 23.923903 0.000002 0.000000
								CHANNELS 3 Yrotation Xrotation Zrotation
								JOINT RightWrist
								{
									OFFSET 19.846718 0.012767 0.000000
									CHANNELS 3 Yrotation Xrotation Zrotation
									End Site
									{
										OFFSET 14.973145 0.000001 0.000000
									}
								}
							}
						}
					}
					JOINT LeftCollar
					{
						OFFSET -2.894404 0.000001 6.791374
						CHANNELS 3 Yrotation Xrotation Zrotation
						JOINT LeftShoulder
						{
							OFFSET -13.574684 -0.000001 0.000000
							CHANNELS 3 Yrotation Xrotation Zrotation
							JOINT LeftElbow
							{
								OFFSET -23.923903 -0.000002 0.000000
								CHANNELS 3 Yrotation Xrotation Zrotation
								JOINT LeftWrist
								{
									OFFSET -19.846718 0.012763 0.000000
									CHANNELS 3 Yrotation Xrotation Zrotation
									End Site
									{
										OFFSET -14.973145 -0.000001 0.000000
									}
								}
							}
						}
					}
				}
			}
		}
	}
	JOINT RightHip
	{
		OFFSET 9.469263 0.004643 0.045487
		CHANNELS 3 Yrotation Xrotation Zrotation
		JOINT RightKnee
		{
			OFFSET 0.000000 0.002661 -40.478676
			CHANNELS 3 Yrotation Xrotation Zrotation
			JOINT RightAnkle
			{
				OFFSET 0.000000 0.049106 -35.224068
				CHANNELS 3 Yrotation Xrotation Zrotation
				JOINT RightToe
				{
					OFFSET -0.000001 12.539529 -6.151390
					CHANNELS 3 Yrotation Xrotation Zrotation
					End Site
					{
						OFFSET -0.000001 5.044994 -1.291870
					}
				}
			}
		}
	}
	JOINT LeftHip
	{
		OFFSET -9.469263 0.004641 0.045487
		CHANNELS 3 Yrotation Xrotation Zrotation
		JOINT LeftKnee
		{
			OFFSET 0.000000 0.002661 -40.478676
			CHANNELS 3 Yrotation Xrotation Zrotation
			JOINT LeftAnkle
			{
				OFFSET 0.000000 0.049106 -35.224068
				CHANNELS 3 Yrotation Xrotation Zrotation
				JOINT LeftToe
				{
					OFFSET -0.000001 12.539529 -6.151390
					CHANNELS 3 Yrotation Xrotation Zrotation
					End Site
					{
						OFFSET -0.000001 5.044994 -1.291870
					}
				}
			}
		}
	}
}
MOTION
Frames: 12
Frame Time: 0.016667
-10.478498 -16.396999 87.392395 2.594843 -2.036413 -114.692004 1.324269 -7.489100 0.246796 0.665250 -3.337614 0.145391 0.665251 -3.337613 0.145390 0.499592 -2.503054 0.112651 -0.051817 -22.786419 1.155924 0.218197 -6.138046 2.070057 10.013791 1.928406 -1.158284 49.477375 21.483786 8.972419 6.368017 -15.999423 11.044417 -31.657346 21.195347 27.888094 -8.047707 1.769026 -4.931764 -75.579035 47.097808 -48.408081 -34.126654 -6.717383 -72.150307 38.147167 33.916134 -25.051063 -0.850311 49.031575 9.026530 2.093735 -21.154827 -12.529052 3.945770 -17.965496 11.596639 -1.674678 -3.259063 0.196174 -5.558817 4.928543 5.269466 -4.637189 -8.163504 19.786645 16.657469 -25.805416 -18.602324 6.326867 35.306897 1.987232 
-10.155457 -16.567455 87.539986 2.463058 -2.059531 -113.971747 1.578340 -7.512233 -0.301388 0.759603 -3.346081 -0.091975 0.759604 -3.346081 -0.091970 0.569036 -2.509678 -0.064798 -0.200803 -22.813686 1.222088 -0.032959 -6.186984 2.149029 9.809986 2.238145 -1.154302 48.837102 22.077125 7.830096 5.942761 -16.067564 10.642948 -31.723008 21.328143 28.165456 -8.123386 1.551409 -5.142528 -75.513485 45.845821 -49.140496 -33.893304 -6.908103 -72.542783 38.033680 33.447819 -25.424911 0.076607 49.138222 9.993652 2.055475 -20.673518 -12.459757 4.227447 -18.514247 11.435991 -1.825661 -2.808061 0.181186 -5.541876 4.598275 5.206117 -4.680574 -7.818802 19.804424 17.647477 -27.223818 -19.702978 6.502284 36.745929 2.141720 
-9.848945 -16.711561 87.662827 2.317891 -2.030965 -113.186152 1.801386 -7.516013 -0.864697 0.837975 -3.349928 -0.337252 0.837975 -3.349928 -0.337249 0.626453 -2.512916 -0.248269 -0.320853 -22.837485 1.283788 -0.233104 -6.229878 2.227831 9.654206 2.701529 -1.191262 48.113188 22.651337 6.585534 5.536766 -16.143471 10.247974 -31.768641 21.373315 28.365627 -8.189612 1.296689 -5.399323 -75.448906 44.595791 -49.926613 -33.555613 -7.113672 -72.936380 37.874529 33.165076 -25.679626 0.911876 49.165331 10.834984 2.022298 -20.218024 -12.207251 4.596351 -18.889016 11.054246 -1.996966 -2.489763 0.175563 -5.637560 4.304153 5.043690 -4.680679 -7.496017 19.924512 18.410637 -28.622686 -20.409783 6.694249 38.143055 2.301496 
-9.541007 -16.800207 87.755356 2.155532 -1.918737 -112.356243 1.942972 -7.515950 -1.448315 0.889168 -3.351018 -0.590982 0.889168 -3.351020 -0.590980 0.663443 -2.514130 -0.438228 -0.406794 -22.847891 1.353200 -0.369503 -6.248459 2.329803 9.539767 3.146057 -1.261560 47.377283 23.246276 5.355815 5.289935 -15.937791 9.894134 -31.756992 21.352006 28.516151 -8.268732 1.284131 -5.643796 -75.136042 43.328381 -50.482041 -33.261181 -7.342377 -73.184418 37.654840 32.912421 -26.001598 1.620708 49.083471 11.508654 1.990492 -19.706699 -12.003292 4.977347 -19.183502 10.763103 -2.213876 -2.261635 0.189763 -5.864497 4.043653 4.804056 -4.638721 -7.205827 20.072051 19.133440 -29.905225 -21.068779 6.885552 39.434405 2.451488 
-9.230099 -16.853054 87.817490 2.044395 -1.796357 -111.492368 2.108978 -7.505847 -2.037524 0.941979 -3.351252 -0.853774 0.941979 -3.351251 -0.853773 0.701600 -2.514766 -0.634980 -0.497386 -22.829246 1.422935 -0.513761 -6.213011 2.431192 9.327305 3.397214 -1.385294 46.757966 23.980606 4.316090 5.187773 -15.433584 9.552258 -31.699646 21.403825 28.714549 -8.347041 1.226888 -5.968309 -74.893844 42.196424 -51.185270 -33.057040 -7.580806 -73.265534 37.456662 32.465853 -26.466910 2.307341 48.909636 12.049408 2.023736 -19.059626 -12.139420 5.256061 -19.838344 10.716287 -2.560325 -1.821308 0.221084 -6.112552 3.813410 4.582053 -4.554484 -6.898143 20.006543 19.950595 -31.103322 -21.910408 7.119408 40.616089 2.618306 
-8.910648 -16.876307 87.854134 1.939156 -1.621875 -110.577074 2.229060 -7.495319 -2.652370 0.988874 -3.350303 -1.125051 0.988874 -3.350303 -1.125050 0.735273 -2.514565 -0.838124 -0.589548 -22.787019 1.500425 -0.658381 -6.133729 2.546157 9.169227 3.542186 -1.426646 46.135165 24.831660 3.366032 5.047161 -14.828727 9.174448 -31.729367 21.530867 28.966446 -8.367913 1.112299 -6.260438 -74.672259 41.028909 -51.935802 -32.882033 -7.791039 -73.310080 37.259406 31.870380 -26.992066 2.884434 48.701714 12.440075 2.103225 -18.417702 -12.559214 5.596741 -20.925441 10.577133 -3.118882 -1.121449 0.237519 -6.405758 3.573202 4.424315 -4.489071 -6.589100 19.690956 20.617522 -32.226270 -22.570628 7.427172 41.670342 2.810324 
-8.568576 -16.857954 87.869400 1.829455 -1.366510 -109.619270 2.299885 -7.459887 -3.289721 1.033227 -3.346012 -1.401687 1.033227 -3.346012 -1.401684 0.767022 -2.511902 -1.045307 -0.690635 -22.737476 1.577251 -0.819114 -6.040694 2.657468 8.987899 3.751215 -1.497550 45.460602 25.581534 2.360089 4.794664 -14.389021 8.784777 -31.944849 21.732614 29.189886 -8.381808 0.964429 -6.537388 -74.389284 39.786347 -52.610328 -32.650490 -7.970881 -73.412779 37.041181 31.351904 -27.423223 3.343302 48.514475 12.699516 2.180002 -17.880319 -13.155306 6.196045 -22.284957 10.612793 -3.878939 -0.334520 0.260229 -6.770762 3.326751 4.309508 -4.441958 -6.285967 19.280138 21.635744 -33.149951 -23.813449 7.791982 42.614954 3.010172 
-8.207094 -16.826487 87.861237 1.699449 -1.117573 -108.648598 2.386224 -7.440122 -3.912605 1.068777 -3.334796 -1.677173 1.068778 -3.334797 -1.677175 0.792203 -2.504058 -1.251693 -0.785422 -22.691780 1.644911 -0.970990 -5.954754 2.753864 8.771699 4.068696 -1.715180 44.731192 26.154632 1.334391 4.475530 -14.175977 8.347442 -32.281923 21.968472 29.339026 -8.391648 0.727975 -6.863737 -74.070369 38.519029 -53.306109 -32.364623 -8.118867 -73.519480 36.808337 30.966356 -27.752098 3.732911 48.285517 12.785263 2.326291 -17.415259 -13.804763 6.960376 -23.705316 10.628409 -4.717144 0.380908 0.290305 -7.134274 3.001686 4.263903 -4.443707 -5.974760 18.938883 22.472606 -33.925054 -24.858409 8.228693 43.436701 3.251216 
-7.831697 -16.760134 87.826828 1.574757 -0.820462 -107.664764 2.449210 -7.399637 -4.559851 1.093091 -3.315008 -1.960275 1.093092 -3.315007 -1.960275 0.808957 -2.489799 -1.463864 -0.887370 -22.653192 1.726167 -1.132200 -5.881954 2.872772 8.614833 4.330592 -1.772316 43.809889 26.846890 0.199507 4.221427 -14.043023 7.865920 -32.604547 22.242675 29.443105 -8.414621 0.651592 -7.051668 -73.638414 37.075397 -53.874538 -32.081245 -8.254688 -73.515976 36.573190 30.613748 -28.047545 3.957262 48.026567 12.630314 2.590407 -16.975817 -14.442971 7.893078 -25.054759 10.582123 -5.601683 0.935228 0.330154 -7.528271 2.687102 4.229046 -4.520915 -5.710345 18.837385 23.418243 -34.473850 -26.034289 8.649111 44.174962 3.487924 
-7.477040 -16.661333 87.766136 1.491406 -0.478061 -106.650726 2.496840 -7.344302 -5.189642 1.107647 -3.295209 -2.229594 1.107647 -3.295209 -2.229597 0.818487 -2.475494 -1.665763 -0.970862 -22.598005 1.781338 -1.266886 -5.778440 2.949560 8.464905 4.524592 -1.849510 42.803426 27.595764 -0.920658 4.130841 -13.787501 7.346931 -32.826917 22.501906 29.528301 -8.424665 0.573991 -7.346949 -73.198639 35.696239 -54.508892 -31.875031 -8.375315 -73.383088 36.306984 30.126011 -28.420795 4.016220 47.770538 12.257342 2.957754 -16.585033 -15.078611 9.091180 -26.353380 10.512062 -6.555811 1.374882 0.376235 -7.952585 2.490335 4.168414 -4.675626 -5.595059 19.097023 24.419204 -34.815267 -27.209800 9.026986 44.895086 3.719925 
-7.168633 -16.514063 87.683922 1.431309 -0.118770 -105.623691 2.525069 -7.287650 -5.784335 1.119016 -3.285573 -2.478315 1.119015 -3.285574 -2.478312 0.825712 -2.468774 -1.852211 -1.035611 -22.522767 1.807353 -1.375350 -5.637819 2.978755 8.268776 4.709579 -2.147935 41.918527 28.169886 -1.826203 4.068517 -13.326153 6.777478 -32.838788 22.616805 29.595640 -8.414370 0.436084 -7.824158 -72.721284 34.417658 -55.234029 -31.676409 -8.421636 -73.140131 36.040494 29.441011 -28.894326 3.981116 47.527909 11.784417 3.397486 -16.293623 -15.753869 10.573530 -27.651797 10.277608 -7.541722 1.783821 0.424527 -8.421609 2.471715 4.022199 -4.789646 -5.734010 19.574885 25.618236 -34.921518 -28.683379 9.368652 45.588446 3.940103 
-6.903612 -16.342592 87.583893 1.378738 0.248709 -104.626443 2.539107 -7.254066 -6.353076 1.138922 -3.289988 -2.713793 1.138922 -3.289989 -2.713791 0.839353 -2.472615 -2.028653 -1.104957 -22.419345 1.826645 -1.493508 -5.444780 2.994394 8.087067 4.925034 -2.387470 41.013619 28.689264 -2.689747 3.910837 -12.792231 6.162858 -32.756430 22.563079 29.600537 -8.383621 0.298514 -8.250337 -72.260847 33.078849 -56.015157 -31.385392 -8.430309 -72.827015 35.779106 28.741354 -29.417212 3.928163 47.308943 11.261998 3.891568 -16.116562 -16.479325 12.203051 -28.932593 9.873559 -8.451274 2.169298 0.474052 -8.890594 2.525383 3.926363 -4.909642 -6.033086 19.844806 26.499305 -34.933624 -29.786294 9.754514 46.148791 4.184251 
